<svg id="图层_1" data-name="图层 1" xmlns="http://www.w3.org/2000/svg" viewBox="0 0 8.07 8.07"><defs><style>.cls-1{font-size:3.66px;font-family:KozGoPr6N-Regular-83pv-RKSJ-H, Kozuka Gothic Pr6N;}</style></defs><title>ts_logo</title><path d="M3.5,0a3.5,3.5,0,0,0,0,7,3.46,3.46,0,0,0,1.66-.41l.13.13,1,1A1,1,0,1,0,7.81,6.36l-.08-.08-1-1-.16-.13A3.45,3.45,0,0,0,7,3.49,3.5,3.5,0,0,0,3.51,0Zm0,1A2.49,2.49,0,0,1,6,3.5a2.51,2.51,0,0,1-.66,1.72l0,0-.13.13A2.5,2.5,0,0,1,3.49,6a2.5,2.5,0,0,1,0-5Z" transform="translate(0 0.01)"/><text class="cls-1" transform="translate(2.53 5.06)">T</text></svg>